<svg xmlns="http://www.w3.org/2000/svg" width="90" height="89.547" viewBox="0 0 90 89.547">
    <defs>
        <style>
            .cls-1{fill:#8cda42}.cls-2{clip-path:url(#clip-path)}.cls-3{fill:#8164fb}.cls-4{fill:#a093d7}.cls-5,.cls-6{fill:#614bbc}.cls-6{opacity:.6}
        </style>
        <clipPath id="clip-path">
            <path id="Path_88" d="M44.827 89.543c-6.66-.243-13.487-.457-20.184-2.052C9.626 83.946 2.472 76.288.867 60.982a150.106 150.106 0 0 1 .252-34.418C2.742 13.72 10 5.8 22.479 2.546 31.9.084 41.479-.308 51.133.177a81.605 81.605 0 0 1 13.851 1.688c15.147 3.451 22.386 11.062 24.083 26.49a142.039 142.039 0 0 1-.233 34.409c-1.819 13.459-8.945 21.08-22.125 24.382-7.144 1.818-14.409 2.173-21.882 2.397z" class="cls-1" data-name="Path 88" transform="translate(0 .004)"/>
        </clipPath>
    </defs>
    <g id="icon-cumulus" transform="translate(0 .004)">
        <g id="Layer_2" data-name="Layer 2" transform="translate(0 -.004)">
            <g id="Layer_1" data-name="Layer 1">
                <g id="Mask_Group_13" class="cls-2" data-name="Mask Group 13">
                    <g id="icon-cumulus-2" data-name="icon-cumulus" transform="translate(0 .004)">
                        <g id="Layer_2-2" data-name="Layer 2">
                            <g id="Layer_1-2" data-name="Layer 1">
                                <path id="Path_141" d="M44.827 89.543c-6.66-.243-13.487-.457-20.184-2.052C9.626 83.946 2.472 76.289.867 60.982a150.106 150.106 0 0 1 .252-34.418C2.742 13.721 10 5.8 22.479 2.546 31.9.084 41.479-.308 51.133.177a81.605 81.605 0 0 1 13.851 1.688c15.148 3.452 22.386 11.063 24.083 26.49a142.039 142.039 0 0 1-.233 34.409c-1.819 13.459-8.945 21.08-22.125 24.382-7.144 1.819-14.409 2.173-21.882 2.397z" class="cls-3" data-name="Path 141"/>
                                <path id="Path_142" d="M42.906 22.386a20.3 20.3 0 1 0 20.278 20.305 20.3 20.3 0 0 0-20.278-20.305z" class="cls-4" data-name="Path 142"/>
                                <path id="Path_143" d="M42.906 62.978a20.194 20.194 0 0 1-9.234-2.211 13.562 13.562 0 1 0-7.4 2.2 7.667 7.667 0 0 0 1.231-.065c-.4 0-.811.065-1.231.065z" class="cls-5" data-name="Path 143"/>
                                <path id="Path_144" d="M65.012 32.179a15.39 15.39 0 0 0-10.167 26.947 20.24 20.24 0 0 1-11.939 3.852h22.106a10.063 10.063 0 0 1-1.5-.075c.494 0 1 .075 1.5.075a15.4 15.4 0 0 0 0-30.78zm-2.957 30.51c.28.056.569.093.858.131a12.471 12.471 0 0 1-.858-.131zm-6.2-2.752l.093.065zm1.091.737l.187.121zm1.166.653l.317.159zm1.241.569l.457.159zm1.324.448l.616.168z" class="cls-6" data-name="Path 144"/>
                            </g>
                        </g>
                    </g>
                </g>
            </g>
        </g>
    </g>
</svg>
