<svg xmlns="http://www.w3.org/2000/svg" width="66.055" height="65.722" viewBox="0 0 66.055 65.722">
    <defs>
        <style>
            .cls-1{fill:#6ddcc3}.cls-2{clip-path:url(#clip-path)}.cls-3{fill:#8164fb}.cls-4{fill:#614bbc}
        </style>
        <clipPath id="clip-path">
            <path id="Path_96" d="M32.9 65.718a75.234 75.234 0 0 1-14.814-1.506C7.065 61.61 1.814 55.99.637 44.756A110.169 110.169 0 0 1 .821 19.5C2.013 10.069 7.339 4.257 16.5 1.868A68.808 68.808 0 0 1 37.528.129a59.893 59.893 0 0 1 10.166 1.239C58.812 3.9 64.124 9.487 65.37 20.81a104.248 104.248 0 0 1-.17 25.254c-1.335 9.878-6.565 15.471-16.238 17.895A73.352 73.352 0 0 1 32.9 65.718z" class="cls-1" data-name="Path 96" transform="translate(0 .004)"/>
        </clipPath>
    </defs>
    <g id="icon-green" transform="translate(0 .004)">
        <g id="Layer_1" data-name="Layer 1" transform="translate(0 -.004)">
            <g id="Mask_Group_7" class="cls-2" data-name="Mask Group 7">
                <g id="icon-green-2" data-name="icon-green" transform="translate(0 .003)">
                    <g id="Layer_1-2" data-name="Layer 1">
                        <path id="Path_119" d="M32.9 65.719a75.234 75.234 0 0 1-14.814-1.506C7.065 61.612 1.814 55.991.637 44.757A110.169 110.169 0 0 1 .821 19.5C2.013 10.07 7.339 4.258 16.5 1.869A68.808 68.808 0 0 1 37.528.13a59.893 59.893 0 0 1 10.166 1.239C58.812 3.9 64.124 9.488 65.37 20.811a104.248 104.248 0 0 1-.17 25.254c-1.335 9.878-6.565 15.471-16.238 17.895A73.352 73.352 0 0 1 32.9 65.719z" class="cls-3" data-name="Path 119"/>
                        <path id="Path_120" d="M12.8 37.946c2.738-2.054 8.9-6.709 15.643-8.639a49.542 49.542 0 0 0-7.578 4.587 76.953 76.953 0 0 0-7.051 5.812c-1.013.869-4.792 4.012-4.929 4.587s.917.582 1.164.821.575 1.157 1.013.821 2.629-3.06 3.04-3.156c10.577 7.044 24.145 4.388 31.963-8.112 2.608-4.2 4.929-9.077 11.1-11.638C31.2 15.061 14.2 18.874 12.8 37.946z" class="cls-4" data-name="Path 120"/>
                    </g>
                </g>
            </g>
        </g>
    </g>
</svg>
