<svg xmlns="http://www.w3.org/2000/svg" width="63.869" height="63.547" viewBox="0 0 63.869 63.547">
    <defs>
        <style>
            .cls-1{fill:#6ddcc3}.cls-2{clip-path:url(#clip-path)}.cls-3{fill:#8164fb}.cls-4,.cls-5{fill:#614bbc}.cls-4{opacity:.5}.cls-6{fill:#fff}
        </style>
        <clipPath id="clip-path">
            <path id="Path_62" d="M31.812 63.543a72.744 72.744 0 0 1-14.324-1.456C6.831 59.571 1.754 54.137.615 43.275A106.523 106.523 0 0 1 .794 18.85C1.946 9.735 7.1 4.116 15.952 1.806A66.531 66.531 0 0 1 36.286.124a57.911 57.911 0 0 1 9.829 1.2C56.865 3.771 62 9.173 63.206 20.121a100.8 100.8 0 0 1-.165 24.418c-1.291 9.551-6.348 14.959-15.7 17.3a70.924 70.924 0 0 1-15.529 1.704z" class="cls-1" data-name="Path 62" transform="translate(0 .004)"/>
        </clipPath>
    </defs>
    <g id="icon-time" transform="translate(0 .004)">
        <g id="Layer_1" data-name="Layer 1" transform="translate(0 -.004)">
            <g id="Mask_Group_5" class="cls-2" data-name="Mask Group 5">
                <g id="icon-time-2" data-name="icon-time" transform="translate(0 .003)">
                    <g id="Layer_1-2" data-name="Layer 1">
                        <path id="Path_111" d="M31.812 63.544a72.744 72.744 0 0 1-14.324-1.456C6.831 59.572 1.754 54.138.616 43.276a106.523 106.523 0 0 1 .178-24.425C1.946 9.737 7.1 4.117 15.952 1.807A66.53 66.53 0 0 1 36.286.126a57.911 57.911 0 0 1 9.829 1.2C56.865 3.773 62 9.174 63.206 20.122a100.8 100.8 0 0 1-.165 24.418c-1.291 9.551-6.348 14.959-15.7 17.3a70.924 70.924 0 0 1-15.529 1.704z" class="cls-3" data-name="Path 111"/>
                        <rect id="Rectangle_158" width="27.734" height="17.435" class="cls-4" data-name="Rectangle 158" rx="4.163" transform="translate(14.033 32.533)"/>
                        <path id="Path_112" d="M42.071 17.508v-.9a2.363 2.363 0 0 0-4.726 0v.9a10.385 10.385 0 0 0-4.163 1.986l-.2-.2a1.7 1.7 0 0 0-2.4 2.4l.238.232a10.551 10.551 0 0 0-1.933 6.162 10.809 10.809 0 1 0 13.184-10.58zM32.8 21.572l1.037 1.028a.371.371 0 0 0 .238.1.357.357 0 0 0 .232-.1.331.331 0 0 0 0-.47l-1.033-1.026a9.485 9.485 0 0 1 5.779-2.535V20a.662.662 0 1 0 1.324 0v-1.43a9.485 9.485 0 0 1 5.792 2.535l-1.033 1.026a.331.331 0 0 0 0 .47.357.357 0 0 0 .232.1.371.371 0 0 0 .238-.1l1.033-1.033a9.518 9.518 0 0 1 2.529 5.792H47.7a.662.662 0 0 0 0 1.324h1.43a9.518 9.518 0 0 1-2.529 5.792l-1.033-1.033a.332.332 0 1 0-.47.47l1.033 1.033a9.518 9.518 0 0 1-5.759 2.542v-1.43a.662.662 0 1 0-1.324 0v1.43a9.518 9.518 0 0 1-5.792-2.529l1.033-1.033a.332.332 0 0 0-.47-.47l-1.033 1.033a9.518 9.518 0 0 1-2.523-5.789h1.5a.662.662 0 1 0 0-1.324h-1.48a9.379 9.379 0 0 1 2.5-5.805z" class="cls-5" data-name="Path 112"/>
                        <path id="Path_113" d="M39.212 26.7a1.43 1.43 0 1 0 .993 0v-4.526a.5.5 0 1 0-.993 0z" class="cls-6" data-name="Path 113"/>
                        <rect id="Rectangle_159" width="27.734" height="17.435" class="cls-5" data-name="Rectangle 159" rx="4.163" transform="translate(13.371 31.871)"/>
                        <path id="Rectangle_160" d="M0 0h27.734v3.7H0z" class="cls-6" data-name="Rectangle 160" transform="translate(13.371 36.035)"/>
                    </g>
                </g>
            </g>
            <path id="Path_64" d="M58.831 38.136a1.533 1.533 0 1 0 1.064 0v-4.854a.532.532 0 1 0-1.064 0z" class="cls-6" data-name="Path 64" transform="translate(-19.68 -11.287)"/>
        </g>
    </g>
</svg>
