<?xml version="1.0" encoding="UTF-8"?>
<svg width="404px" height="96px" viewBox="0 0 404 96" version="1.1" xmlns="http://www.w3.org/2000/svg" xmlns:xlink="http://www.w3.org/1999/xlink">
    <!-- Generator: Sketch 51 (57462) - http://www.bohemiancoding.com/sketch -->
    <title>Group</title>
    <desc>Created with Sketch.</desc>
    <defs>
        <circle id="path-1" cx="48" cy="48" r="48"></circle>
        <circle id="path-3" cx="48" cy="48" r="48"></circle>
        <linearGradient x1="62.5324026%" y1="2.02986636%" x2="50%" y2="86.7733965%" id="linearGradient-5">
            <stop stop-color="#FFA5A5" offset="0%"></stop>
            <stop stop-color="#FF9595" offset="25.564487%"></stop>
            <stop stop-color="#A078FF" offset="57.4286488%"></stop>
            <stop stop-color="#74FFE4" offset="100%"></stop>
        </linearGradient>
        <linearGradient x1="23.1905764%" y1="7.48562986%" x2="72.3721591%" y2="94.8797053%" id="linearGradient-6">
            <stop stop-color="#FFA5A5" offset="0%"></stop>
            <stop stop-color="#FF9595" offset="25.564487%"></stop>
            <stop stop-color="#A078FF" offset="57.4286488%"></stop>
            <stop stop-color="#77F8E5" offset="84.0419382%"></stop>
            <stop stop-color="#74FFE4" offset="100%"></stop>
        </linearGradient>
    </defs>
    <g id="Social-Covers" stroke="none" stroke-width="1" fill="none" fill-rule="evenodd">
        <g id="oGraph/oGraph_Image" transform="translate(-398.000000, -267.000000)">
            <g id="Group" transform="translate(398.000000, 267.000000)">
                <path d="M360.69,72 L360.69,23.7 L368.76,23.7 L395.76,61.5 L395.76,23.7 L403.23,23.7 L403.23,72 L395.07,72 L368.07,34.2 L367.92,34.2 L367.92,72 L360.69,72 Z M336,72 L336,23.7 L343.47,23.7 L343.47,72 L336,72 Z M288.6,72 L288.6,23.7 L296.04,23.7 L296.04,65.31 L322.32,65.31 L322.32,72 L288.6,72 Z M241.47,46.41 L257.55,46.41 C263.97,46.41 267.33,43.65 267.33,38.34 C267.33,33.03 264,30.39 257.4,30.39 L241.47,30.39 L241.47,46.41 Z M261,52.89 L273.48,72 L264.93,72 L252.93,53.1 L241.47,53.1 L241.47,72 L234,72 L234,23.7 L258,23.7 C268.41,23.7 274.71,29.28 274.71,38.4 C274.8,46.68 269.76,51.99 261,52.89 Z M183.66,72 L183.66,23.7 L219,23.7 L219,30.39 L191.1,30.39 L191.1,44.04 L216.57,44.04 L216.57,50.4 L191.1,50.4 L191.1,65.4 L219,65.4 L219,72 L183.66,72 Z M136.05,47.22 L153.15,47.22 C159.78,47.22 163.08,44.4 163.08,38.82 C163.08,33.24 159.84,30.39 153.15,30.39 L136.05,30.39 L136.05,47.22 Z M128.58,72 L128.58,23.7 L153.51,23.7 C163.77,23.7 170.55,29.55 170.55,38.88 C170.55,48.21 163.92,53.88 153.51,53.88 L136.05,53.88 L136.05,71.88 L128.58,72 Z" id="Shape" fill="#F7F7F7"></path>
                <mask id="mask-2" fill="white">
                    <use xlink:href="#path-1"></use>
                </mask>
                <use id="Oval-2" fill="#D8D8D8" fill-rule="nonzero" xlink:href="#path-1"></use>
                <g id="Group-Copy" mask="url(#mask-2)">
                    <mask id="mask-4" fill="white">
                        <use xlink:href="#path-3"></use>
                    </mask>
                    <g id="Oval"></g>
                    <path d="M43.8851192,95.7352663 C37.827544,95.2146031 33.1752746,90.145629 33.1752746,84.0655461 C33.1752746,77.5968622 38.4193368,72.3529244 44.8880207,72.3529244 C64.7428601,72.3529244 80.8384041,56.2573803 80.8384041,36.4026653 C80.8384041,16.5478259 64.7428601,0.452406218 44.8880207,0.452406218 C41.7463834,0.452406218 38.6181762,0.86426114 35.5834819,1.67740104 C40.960601,0.23653057 46.5477513,-0.256650777 52.094114,0.220116062 C78.4699896,2.48693472 98.0140725,25.7063751 95.7472539,52.0821264 C93.4804352,78.4580021 70.2609948,98.002085 43.8851192,95.7352663 Z" id="Stroke-1" fill="#060B24" mask="url(#mask-4)"></path>
                    <path d="M45.9294434,93.2731934 C39.8718682,92.7422801 33.3300781,89.2342529 33.3300781,83.7553711 C33.3300781,78.2764893 37.4235902,75.0590268 43.8872006,74.6971436 C67.8923275,73.3531494 84.3728141,57.6503931 84.3728141,37.4048089 C84.3728141,17.1590978 67.0756943,0.707253886 47.2208549,0.707253886 C44.0792176,0.707253886 41.9756891,0.619930232 38.9409948,1.44907798 C13.3699275,8.43565266 -1.80491192,35.2368171 5.0467772,61.3112884 C10.2692021,81.1854743 25.4749421,92.5899842 45.9294434,93.2731934 Z" id="Stroke-3" fill="url(#linearGradient-5)" mask="url(#mask-4)"></path>
                    <path d="M39.1118708,93.9316406 C29.7490234,91.2333984 28.9266823,84.2967162 30.3876953,79.5600586 C32.3344727,73.2485352 37.9262695,71.4580078 44.9121094,70.6040039 C67.9791758,67.7841046 80.4980469,55.0025635 80.4980469,36.1914063 C80.4980469,17.380249 65.3693848,1.55126953 43.8200684,3.09008789 C40.6840919,3.3140253 30.7912272,3.60456828 27.9887695,5.21813965 C10.2751465,15.4171143 -5.16242487,34.8128207 1.68926425,60.3838881 C6.91168912,79.8743751 19.0802976,92.9841819 39.1118708,93.9316406 Z" id="Stroke-3-Copy" fill="#060B24" mask="url(#mask-4)"></path>
                    <path d="M48,99 C19.8334778,99 -3,76.1665222 -3,48 C-3,19.8334778 19.8334778,-3 48,-3 C76.1665222,-3 99,19.8334778 99,48 C99,76.1665222 76.1665222,99 48,99 Z M48,93 C72.8528137,93 93,72.8528137 93,48 C93,23.1471863 72.8528137,3 48,3 C23.1471863,3 3,23.1471863 3,48 C3,72.8528137 23.1471863,93 48,93 Z" id="Oval-Copy-2" fill="url(#linearGradient-6)" fill-rule="nonzero" mask="url(#mask-4)"></path>
                </g>
            </g>
        </g>
    </g>
</svg>