<svg xmlns="http://www.w3.org/2000/svg" width="90" height="89.547" viewBox="0 0 90 89.547"><defs><clipPath id="a"><path d="M44.827 89.543c-6.66-.243-13.487-.457-20.184-2.052C9.626 83.946 2.472 76.288.867 60.982a150.106 150.106 0 01.252-34.418C2.742 13.72 10 5.8 22.479 2.546 31.9.084 41.479-.308 51.133.177a81.605 81.605 0 0113.851 1.688c15.147 3.451 22.386 11.062 24.083 26.49a142.039 142.039 0 01-.233 34.409c-1.819 13.459-8.945 21.08-22.125 24.382-7.144 1.818-14.409 2.173-21.882 2.397z" data-name="Path 85" transform="translate(0 .004)" fill="#8cda42"/></clipPath></defs><g data-name="Layer 1"><g data-name="Mask Group 12"><g data-name="icon-certify" clip-path="url(#a)"><g data-name="Layer 1"><path d="M44.827 89.547c-6.66-.243-13.487-.457-20.184-2.052C9.626 83.95 2.472 76.293.867 60.986a150.106 150.106 0 01.252-34.418C2.742 13.725 10 5.804 22.479 2.55 31.9.088 41.479-.304 51.133.181a81.605 81.605 0 0113.851 1.688c15.148 3.452 22.386 11.063 24.083 26.49a142.039 142.039 0 01-.233 34.409c-1.819 13.459-8.945 21.08-22.125 24.382-7.144 1.819-14.409 2.173-21.882 2.397z" data-name="Path 138" fill="#8164fb"/><path d="M51.879 37.696l-9.747 8.674-3.806-4.253a2.555 2.555 0 10-3.815 3.4l7.189 8.017 13.546-12.051a2.542 2.542 0 00-3.377-3.8z" data-name="Path 139" fill="#fff"/><path d="M70.254 36.558c-.933-2.8 0-6.529-1.726-8.9s-5.6-2.668-7.928-4.384-3.806-5.261-6.613-6.175S48 18.23 45 18.23s-6.282-2.006-9-1.126-4.291 4.524-6.6 6.221-6.212 2.024-7.928 4.393-.8 6.081-1.726 8.88-3.834 5.2-3.834 8.208 2.975 5.5 3.834 8.208 0 6.529 1.716 8.908 5.587 2.63 7.938 4.309 3.8 5.273 6.6 6.191 5.992-1.118 9-1.118 6.287 2 8.992 1.119 4.281-4.458 6.641-6.193 6.207-2.026 7.923-4.376.821-6.081 1.726-8.908 3.824-5.2 3.824-8.208-2.994-5.466-3.852-8.18zM45 63.272a18.506 18.506 0 1118.515-18.5A18.515 18.515 0 0145 63.272z" data-name="Path 140" fill="#614bbc"/></g></g></g></g></svg>