<svg xmlns="http://www.w3.org/2000/svg" width="90" height="89.547" viewBox="0 0 90 89.547"><defs><clipPath id="a"><path d="M44.827 89.543c-6.66-.243-13.487-.457-20.184-2.052C9.626 83.946 2.472 76.288.867 60.982a150.106 150.106 0 01.252-34.418C2.742 13.72 10 5.8 22.479 2.546 31.9.084 41.479-.308 51.133.177a81.605 81.605 0 0113.851 1.688c15.147 3.451 22.386 11.062 24.083 26.49a142.039 142.039 0 01-.233 34.409c-1.819 13.459-8.945 21.08-22.125 24.382-7.144 1.818-14.409 2.173-21.882 2.397z" data-name="Path 88" transform="translate(0 .004)" fill="#8cda42"/></clipPath></defs><g data-name="Layer 2"><g data-name="Layer 1"><g data-name="Mask Group 13"><g data-name="icon-cumulus" clip-path="url(#a)"><g data-name="Layer 2"><g data-name="Layer 1"><path d="M44.827 89.547c-6.66-.243-13.487-.457-20.184-2.052C9.626 83.95 2.472 76.293.867 60.986a150.106 150.106 0 01.252-34.418C2.742 13.725 10 5.804 22.479 2.55 31.9.088 41.479-.304 51.133.181a81.605 81.605 0 0113.851 1.688c15.148 3.452 22.386 11.063 24.083 26.49a142.039 142.039 0 01-.233 34.409c-1.819 13.459-8.945 21.08-22.125 24.382-7.144 1.819-14.409 2.173-21.882 2.397z" data-name="Path 141" fill="#8164fb"/><path d="M42.906 22.39a20.3 20.3 0 1020.278 20.305A20.3 20.3 0 0042.906 22.39z" data-name="Path 142" fill="#a093d7"/><path d="M42.906 62.982a20.194 20.194 0 01-9.234-2.211 13.562 13.562 0 10-7.4 2.2 7.667 7.667 0 001.231-.065c-.4 0-.811.065-1.231.065z" data-name="Path 143" fill="#614bbc"/><path d="M65.012 32.183A15.39 15.39 0 0054.845 59.13a20.24 20.24 0 01-11.939 3.852h22.106a10.063 10.063 0 01-1.5-.075c.494 0 1 .075 1.5.075a15.4 15.4 0 000-30.78zm-2.957 30.51c.28.056.569.093.858.131a12.471 12.471 0 01-.858-.131zm-6.2-2.752l.093.065zm1.091.737l.187.121zm1.166.653l.317.159zm1.241.569l.457.159zm1.324.448l.616.168z" data-name="Path 144" opacity=".6" fill="#614bbc"/></g></g></g></g></g></g></svg>