<svg width="404" height="96" viewBox="0 0 404 96" xmlns="http://www.w3.org/2000/svg" xmlns:xlink="http://www.w3.org/1999/xlink"><defs><linearGradient x1="62.532%" y1="2.03%" x2="50%" y2="86.773%" id="e"><stop stop-color="#FFA5A5" offset="0%"/><stop stop-color="#FF9595" offset="25.564%"/><stop stop-color="#A078FF" offset="57.429%"/><stop stop-color="#74FFE4" offset="100%"/></linearGradient><linearGradient x1="23.191%" y1="7.486%" x2="72.372%" y2="94.88%" id="f"><stop stop-color="#FFA5A5" offset="0%"/><stop stop-color="#FF9595" offset="25.564%"/><stop stop-color="#A078FF" offset="57.429%"/><stop stop-color="#77F8E5" offset="84.042%"/><stop stop-color="#74FFE4" offset="100%"/></linearGradient><circle id="a" cx="48" cy="48" r="48"/><circle id="c" cx="48" cy="48" r="48"/></defs><g fill="none" fill-rule="evenodd"><path d="M360.69 72V23.7h8.07l27 37.8V23.7h7.47V72h-8.16l-27-37.8h-.15V72h-7.23zM336 72V23.7h7.47V72H336zm-47.4 0V23.7h7.44v41.61h26.28V72H288.6zm-47.13-25.59h16.08c6.42 0 9.78-2.76 9.78-8.07 0-5.31-3.33-7.95-9.93-7.95h-15.93v16.02zM261 52.89L273.48 72h-8.55l-12-18.9h-11.46V72H234V23.7h24c10.41 0 16.71 5.58 16.71 14.7.09 8.28-4.95 13.59-13.71 14.49zM183.66 72V23.7H219v6.69h-27.9v13.65h25.47v6.36H191.1v15H219V72h-35.34zm-47.61-24.78h17.1c6.63 0 9.93-2.82 9.93-8.4s-3.24-8.43-9.93-8.43h-17.1v16.83zM128.58 72V23.7h24.93c10.26 0 17.04 5.85 17.04 15.18s-6.63 15-17.04 15h-17.46v18l-7.47.12z" fill="#F7F7F7"/><mask id="b" fill="#fff"><use xlink:href="#a"/></mask><use fill="#D8D8D8" fill-rule="nonzero" xlink:href="#a"/><g mask="url(#b)"><mask id="d" fill="#fff"><use xlink:href="#c"/></mask><path d="M43.885 95.735a11.713 11.713 0 01-10.71-11.67c0-6.468 5.244-11.712 11.713-11.712 19.855 0 35.95-16.096 35.95-35.95 0-19.855-16.095-35.95-35.95-35.95-3.142 0-6.27.411-9.305 1.224A47.93 47.93 0 0152.094.22c26.376 2.267 45.92 25.486 43.653 51.862-2.267 26.376-25.486 45.92-51.862 43.653z" fill="#060B24" mask="url(#d)"/><path d="M45.93 93.273c-6.058-.53-12.6-4.039-12.6-9.518 0-5.479 4.094-8.696 10.557-9.058 24.005-1.344 40.486-17.047 40.486-37.292C84.373 17.159 67.076.707 47.22.707c-3.142 0-5.245-.087-8.28.742C13.37 8.436-1.805 35.237 5.047 61.311c5.222 19.874 20.428 31.279 40.882 31.962z" fill="url(#e)" mask="url(#d)"/><path d="M39.112 93.932c-9.363-2.699-10.185-9.635-8.724-14.372 1.946-6.311 7.538-8.102 14.524-8.956 23.067-2.82 35.586-15.601 35.586-34.413 0-18.81-15.129-34.64-36.678-33.1-3.136.223-13.029.514-15.831 2.127-17.714 10.2-33.151 29.595-26.3 55.166 5.223 19.49 17.391 32.6 37.423 33.548z" fill="#060B24" mask="url(#d)"/><path d="M48 99C19.833 99-3 76.167-3 48S19.833-3 48-3s51 22.833 51 51-22.833 51-51 51zm0-6c24.853 0 45-20.147 45-45S72.853 3 48 3 3 23.147 3 48s20.147 45 45 45z" fill="url(#f)" fill-rule="nonzero" mask="url(#d)"/></g></g></svg>